<svg width="46" height="46" viewBox="0 0 46 46" fill="none" xmlns="http://www.w3.org/2000/svg">
  <circle cx="23" cy="23" r="23" fill="#1A73E8"/>
  <path d="M34.1452 19.7549H27.4135C26.8525 19.7549 26.2915 20.2616 26.2915 20.7683V30.9022C26.2915 31.4089 26.8525 31.9156 27.4135 31.9156H34.1452C34.7062 31.9156 35.2672 31.4089 35.2672 30.9022V20.7683C35.2672 20.2616 34.7062 19.7549 34.1452 19.7549ZM33.0232 29.8888H28.5354V21.7817H33.0232V29.8888Z" fill="white"/>
  <path d="M13.0072 17.4059H33.4718V15.333H13.0072C11.7566 15.333 10.7334 16.2658 10.7334 17.4059V29.8429C10.7334 30.983 11.7566 31.9158 13.0072 31.9158H24.6038V29.8429H13.0072V17.4059Z" fill="white"/>
</svg>