<svg width="46" height="46" viewBox="0 0 46 46" fill="none" xmlns="http://www.w3.org/2000/svg">
  <circle cx="23" cy="23" r="23" fill="#1A73E8"/>
  <path d="M32.2003 21.9782L34.2447 19.9337C30.4319 16.1208 25.1776 14.6693 20.2403 15.5279L22.8776 18.1653C26.251 18.1448 29.6345 19.4124 32.2003 21.9782ZM19.9336 28.1115L23.0003 31.1782L26.067 28.1115C24.3803 26.4146 21.6305 26.4146 19.9336 28.1115ZM30.1559 24.0226C29.0519 22.9186 27.7434 22.1315 26.3532 21.6408L29.4403 24.7279L30.1559 24.0226ZM14.2194 12.4102L12.7781 13.8515L15.8959 16.9693C14.4034 17.7155 13.003 18.6968 11.7559 19.9337L13.8003 21.9782C15.0576 20.7208 16.5092 19.7702 18.063 19.1364L20.3527 21.4262C18.6967 21.8657 17.143 22.7346 15.8447 24.0226L17.8892 26.067C19.2692 24.687 21.0683 23.9817 22.8879 23.9613L30.1252 31.1986L31.5665 29.7573L14.2194 12.4102Z" fill="white"/>
</svg>